<mxfile host="embed.diagrams.net" modified="2020-07-07T03:06:37.202Z" agent="5.0 (Windows NT 10.0; Win64; x64) AppleWebKit/537.36 (KHTML, like Gecko) Code/1.46.1 Chrome/78.0.3904.130 Electron/7.3.1 Safari/537.36" etag="YKKVU24aHhMYkquVE58-" version="13.3.9">
    <diagram id="6hGFLwfOUW9BJ-s0fimq" name="Page-1">
        <mxGraphModel dx="684" dy="581" grid="1" gridSize="10" guides="1" tooltips="1" connect="1" arrows="1" fold="1" page="1" pageScale="1" pageWidth="827" pageHeight="1169" background="#FFFFFF" math="0" shadow="0">
            <root>
                <mxCell id="0"/>
                <mxCell id="1" parent="0"/>
                <mxCell id="6" value="&lt;h1&gt;状態：&lt;/h1&gt;" style="text;html=1;spacing=5;spacingTop=-20;whiteSpace=wrap;overflow=hidden;rounded=0;fontColor=#000000;" parent="1" vertex="1">
                    <mxGeometry x="70" y="270" width="90" height="40" as="geometry"/>
                </mxCell>
                <mxCell id="8" value="&lt;h1&gt;観測：&lt;/h1&gt;" style="text;html=1;spacing=5;spacingTop=-20;whiteSpace=wrap;overflow=hidden;rounded=0;fontColor=#000000;" parent="1" vertex="1">
                    <mxGeometry x="70" y="330" width="90" height="40" as="geometry"/>
                </mxCell>
                <mxCell id="9" value="&lt;h2&gt;未来の状態(予測)&lt;/h2&gt;" style="text;html=1;spacing=5;spacingTop=-20;whiteSpace=wrap;overflow=hidden;rounded=0;align=center;fontColor=#000000;" parent="1" vertex="1">
                    <mxGeometry x="320" y="275" width="151" height="30" as="geometry"/>
                </mxCell>
                <mxCell id="27" value="" style="edgeStyle=orthogonalEdgeStyle;rounded=0;orthogonalLoop=1;jettySize=auto;html=1;fontColor=#000000;" edge="1" parent="1" source="10" target="11">
                    <mxGeometry relative="1" as="geometry"/>
                </mxCell>
                <mxCell id="10" value="&lt;h2&gt;未来の状態(補正後)&lt;/h2&gt;" style="text;html=1;spacing=5;spacingTop=-20;whiteSpace=wrap;overflow=hidden;rounded=0;align=center;fontColor=#000000;" parent="1" vertex="1">
                    <mxGeometry x="500" y="275" width="180" height="30" as="geometry"/>
                </mxCell>
                <mxCell id="11" value="&lt;h2&gt;未来の状態(予測)&lt;/h2&gt;" style="text;html=1;spacing=5;spacingTop=-20;whiteSpace=wrap;overflow=hidden;rounded=0;align=center;fontColor=#000000;" parent="1" vertex="1">
                    <mxGeometry x="720" y="275" width="160" height="30" as="geometry"/>
                </mxCell>
                <mxCell id="12" value="&lt;h2&gt;過去の状態&lt;/h2&gt;" style="text;html=1;spacing=5;spacingTop=-20;whiteSpace=wrap;overflow=hidden;rounded=0;align=center;fontColor=#000000;" parent="1" vertex="1">
                    <mxGeometry x="150" y="275" width="120" height="30" as="geometry"/>
                </mxCell>
                <mxCell id="13" value="&lt;h2&gt;未来の観測値(予測)&lt;/h2&gt;" style="text;html=1;spacing=5;spacingTop=-20;whiteSpace=wrap;overflow=hidden;rounded=0;align=center;fontColor=#000000;" parent="1" vertex="1">
                    <mxGeometry x="310" y="335" width="170" height="30" as="geometry"/>
                </mxCell>
                <mxCell id="14" value="&lt;h2&gt;未来の観測値(実測値)&lt;/h2&gt;" style="text;html=1;spacing=5;spacingTop=-20;whiteSpace=wrap;overflow=hidden;rounded=0;align=center;fontColor=#000000;" parent="1" vertex="1">
                    <mxGeometry x="520" y="335" width="200" height="30" as="geometry"/>
                </mxCell>
                <mxCell id="16" value="" style="shape=flexArrow;endArrow=classic;html=1;fontColor=#000000;fillColor=#000000;" parent="1" edge="1">
                    <mxGeometry width="50" height="50" relative="1" as="geometry">
                        <mxPoint x="268" y="289.5" as="sourcePoint"/>
                        <mxPoint x="308" y="289.5" as="targetPoint"/>
                    </mxGeometry>
                </mxCell>
                <mxCell id="17" value="" style="shape=flexArrow;endArrow=classic;html=1;fontColor=#000000;fillColor=#000000;" parent="1" edge="1">
                    <mxGeometry width="50" height="50" relative="1" as="geometry">
                        <mxPoint x="685" y="290" as="sourcePoint"/>
                        <mxPoint x="725" y="289.5" as="targetPoint"/>
                    </mxGeometry>
                </mxCell>
                <mxCell id="21" value="" style="shape=flexArrow;endArrow=classic;html=1;fontColor=#000000;" parent="1" edge="1">
                    <mxGeometry width="50" height="50" relative="1" as="geometry">
                        <mxPoint x="480" y="349.5" as="sourcePoint"/>
                        <mxPoint x="520" y="349.5" as="targetPoint"/>
                    </mxGeometry>
                </mxCell>
                <mxCell id="22" value="" style="endArrow=none;dashed=1;html=1;fontColor=#000000;strokeColor=#000000;" parent="1" edge="1">
                    <mxGeometry width="50" height="50" relative="1" as="geometry">
                        <mxPoint x="50" y="320" as="sourcePoint"/>
                        <mxPoint x="910.7999877929688" y="320" as="targetPoint"/>
                    </mxGeometry>
                </mxCell>
                <mxCell id="24" value="" style="shape=flexArrow;endArrow=classic;html=1;fontColor=#000000;fillColor=#000000;" parent="1" edge="1">
                    <mxGeometry width="50" height="50" relative="1" as="geometry">
                        <mxPoint x="394.5" y="300" as="sourcePoint"/>
                        <mxPoint x="394.5" y="330" as="targetPoint"/>
                    </mxGeometry>
                </mxCell>
                <mxCell id="25" value="" style="shape=flexArrow;endArrow=classic;html=1;fontColor=#000000;fillColor=#000000;" parent="1" edge="1">
                    <mxGeometry width="50" height="50" relative="1" as="geometry">
                        <mxPoint x="610" y="335" as="sourcePoint"/>
                        <mxPoint x="610" y="305" as="targetPoint"/>
                    </mxGeometry>
                </mxCell>
            </root>
        </mxGraphModel>
    </diagram>
</mxfile>